<?xml version="1.0" encoding="utf-8"?>
<!-- Generator: Adobe Illustrator 24.0.1, SVG Export Plug-In . SVG Version: 6.00 Build 0)  -->
<svg version="1.1" id="Capa_1" xmlns="http://www.w3.org/2000/svg" xmlns:xlink="http://www.w3.org/1999/xlink" x="0px" y="0px"
	 viewBox="0 0 612 612" style="enable-background:new 0 0 612 612;" xml:space="preserve">
<style type="text/css">
	.st0{fill:#FFFFFF;}
	.st1{fill:#2A1C44;}
</style>
<circle class="st0" cx="306" cy="306" r="250"/>
<g>
	<g>
		<path class="st1" d="M337.2,216.1c5-2.3,10-4.4,15.1-6.4c5.3-2,10.7-3.7,16.1-5.2c5.5-1.6,11.1-3,16.7-4.2s11.2-2.2,16.8-3.1
			c5.6-0.9,11.1-1.5,16.7-2.2c5.5-0.4,10.9-1,16.4-1.2c4.4-0.2,8.7-0.4,13.1-0.5c3.5-0.2,6.6-2.5,7.5-6c1-3.8-1.1-7.8-4.8-9.2
			c-3-1.1-6.6,0-9.6,0.5c-4.9,0.8-9.7,1.6-14.6,2.6c0.3-0.1,0.4-0.1-0.1,0c-1.7,0.4-1,0.2-0.3,0.1c-5.4,1.1-10.7,2.2-16,3.6
			c-5.6,1.3-11.1,2.9-16.5,4.5c-10.9,3.2-21.6,7.2-32,11.8c-7.1,3.1-13.8,6.7-20.5,10.5c-3.2,1.8-6.2,3.9-9.2,5.9
			c-2.3,1.5-4.5,3.2-6.5,5c0.2-0.1,0.3-0.1,0.5-0.2C329.6,219.9,333.4,217.9,337.2,216.1z"/>
		<path class="st1" d="M325.6,213.6c4.5-3.3,9-6.5,13.7-9.5c8.1-5.2,16.8-9.5,25.5-13.6c10.4-4.9,21.2-8.4,32.2-11.8
			c9.4-2.9,19.1-4.7,28.7-6.6c3.7-0.8,6.6-3.9,6.6-7.8c0-4.2-3.5-7.7-7.7-7.8c-1.3-0.1-2.6,0.4-3.9,0.8c-2.1,0.7-4.2,1.4-6.4,2.1
			c-5.2,1.7-10.3,3.6-15.4,5.6c-10.7,4.1-21.1,9.2-31.2,14.8c-8.2,4.6-16.3,9.8-23.9,15.5c-6,4.5-11.9,9.2-17.3,14.4
			c-2.6,2.5-5.2,5-7.6,7.7c-1.9,2.2-4,4.4-5.6,6.8c0.3-0.4,0.6-0.7,1-1.1C317.7,219.7,321.6,216.6,325.6,213.6z"/>
		<path class="st1" d="M275.6,214.6c-4.7-3-9.5-5.7-14.4-8.3c-5-2.6-10.2-5-15.4-7.2c-5.2-2.2-10.5-4.3-15.8-6.1
			c-5.4-1.8-10.9-3.6-16.4-5.2c-5.4-1.6-10.8-2.9-16.3-4.3c-10.1-2.5-20.5-4.1-30.8-5.8c-1.8-0.3-3.6-0.4-5.3,0.3
			c-2.2,0.9-3.9,2.7-4.6,5c-1.5,4.9,2.2,9.9,7.2,10.1c3.9,0.2,7.8,0.3,11.6,0.5c5.4,0.2,10.9,0.7,16.3,1.1c5.6,0.4,11.3,1.1,16.8,2
			c5.6,0.9,11.2,1.8,16.7,3c11.2,2.3,22.3,5.3,33,9.2c5.1,1.9,10.1,4,15.1,6.3c4.3,2,8.6,4.3,12.7,6.8c0.2,0.1,0.3,0.1,0.5,0.2
			C283.1,219.5,279.3,216.9,275.6,214.6z"/>
		<path class="st1" d="M186.1,172.2c9.1,1.8,18.2,3.5,27.1,6c11,3.1,21.7,7,32.2,11.4c5.3,2.2,10.4,4.9,15.4,7.5
			c3.5,1.8,6.9,3.7,10.2,5.8c9.1,5.7,18,11.9,25.7,19.4c0.6,0.6,1.3,1.3,1.9,2c-2.5-3.9-6-7.3-9.2-10.6c-3.9-4-8-7.8-12.3-11.3
			c-7.2-5.9-14.7-11.5-22.6-16.4c-9.9-6.2-20.1-11.7-30.7-16.4c-5.2-2.3-10.5-4.5-15.9-6.5c-4.8-1.8-9.7-3.4-14.6-5
			c-1.8-0.6-3.7-1.4-5.6-1.4c-2.6,0-5.1,1.3-6.5,3.4C178,164.6,180.6,171.1,186.1,172.2z"/>
		<g>
			<path class="st1" d="M463.4,206.3c-3.3-0.1-6.6-0.2-10.1-0.2c-41.6,0-84,8.5-111,15.2v226.9c26.5-11.3,72.9-28.6,122-36.1
				c3.8-0.6,6.7-3.9,6.7-7.8V214.1C471,209.9,467.6,206.5,463.4,206.3z"/>
		</g>
		<path class="st1" d="M329.1,221.9c-8.4,3.8-15.7,5.6-23.1,5.6s-14.7-1.8-23.1-5.6l-1.5-0.7l0,0c0,41.4,0,107.9,0,151.6v75.4
			c0.3,1.2,5.9,7.1,24.6,7.1c18.7,0,24.4-5.9,24.6-7.1v-227l0,0L329.1,221.9z"/>
		<g>
			<path class="st1" d="M148.6,206.3c-4.2,0.2-7.5,3.6-7.5,7.8v190.3c0,3.9,2.9,7.2,6.7,7.8c49,7.5,95.5,24.9,122,36.1v-70.7
				c0-50.4,0-108.5,0-156.2c-27-6.7-69.4-15.2-111-15.2C155.3,206.1,151.9,206.2,148.6,206.3z"/>
		</g>
	</g>
</g>
</svg>
